<?xml version="1.0" encoding="UTF-8"?>
<svg width="50px" height="40px" viewBox="0 0 50 40" version="1.1" xmlns="http://www.w3.org/2000/svg" xmlns:xlink="http://www.w3.org/1999/xlink">
    <!-- Generator: Sketch 53.2 (72643) - https://sketchapp.com -->
    <title>Gerrit_icon</title>
    <desc>Created with Sketch.</desc>
    <g id="Gerrit_icon" stroke="none" stroke-width="1" fill="none" fill-rule="evenodd">
        <g transform="translate(12.000000, 7.000000)" fill-rule="nonzero">
            <rect id="Rectangle" fill="#FFAAAA" x="0" y="0" width="21" height="21" rx="4"></rect>
            <rect id="Rectangle" fill="#AAFFAA" x="6" y="6" width="21" height="21" rx="4"></rect>
            <polygon id="Path" fill="#FF0000" points="9 12 15 12 15 14 9 14"></polygon>
            <polygon id="Path" fill="#FF0000" points="18 12 24 12 24 14 18 14"></polygon>
            <polygon id="Path" fill="#008000" points="9 18 11 18 11 16 13 16 13 18 15 18 15 20 13 20 13 22 11 22 11 20 9 20"></polygon>
            <polygon id="Path" fill="#008000" points="18 18 20 18 20 16 22 16 22 18 24 18 24 20 22 20 22 22 20 22 20 20 18 20"></polygon>
        </g>
    </g>
</svg>